<?xml version="1.0" encoding="UTF-8" standalone="no"?>
<!DOCTYPE svg PUBLIC "-//W3C//DTD SVG 1.1//EN"
 "http://www.w3.org/Graphics/SVG/1.1/DTD/svg11.dtd">
<!-- Generated by graphviz version 2.40.1 (20161225.0304)
 -->
<!-- Title: G Pages: 1 -->
<svg width="213pt" height="252pt"
 viewBox="0.00 0.00 212.82 252.00" xmlns="http://www.w3.org/2000/svg" xmlns:xlink="http://www.w3.org/1999/xlink">
<g id="graph0" class="graph" transform="scale(1 1) rotate(0) translate(4 248)">
<title>G</title>
<polygon fill="#ffffff" stroke="transparent" points="-4,4 -4,-248 208.8186,-248 208.8186,4 -4,4"/>
<g id="clust1" class="cluster">
<title>clusterlab&#45;core&#45;sw&#45;01</title>
<polygon fill="none" stroke="#000000" points="24.8186,-29 24.8186,-236 104.8186,-236 104.8186,-29 24.8186,-29"/>
<text text-anchor="middle" x="64.8186" y="-220.8" font-family="Times,serif" font-size="14.00" fill="#000000">lab&#45;core&#45;sw&#45;01</text>
</g>
<g id="clust3" class="cluster">
<title>clusterlab&#45;core&#45;sw&#45;02</title>
<polygon fill="none" stroke="#000000" points="124.8186,-91 124.8186,-236 204.8186,-236 204.8186,-91 124.8186,-91"/>
<text text-anchor="middle" x="164.8186" y="-220.8" font-family="Times,serif" font-size="14.00" fill="#000000">lab&#45;core&#45;sw&#45;02</text>
</g>
<g id="clust4" class="cluster">
<title>clusterlab&#45;acc&#45;sw&#45;01</title>
<polygon fill="none" stroke="#000000" points="126.8186,-8 126.8186,-83 202.8186,-83 202.8186,-8 126.8186,-8"/>
<text text-anchor="middle" x="164.8186" y="-67.8" font-family="Times,serif" font-size="14.00" fill="#000000">lab&#45;acc&#45;sw&#45;01</text>
</g>
<!-- lab&#45;core&#45;sw&#45;01&#45;Eth2/1 -->
<g id="node1" class="node">
<title>lab&#45;core&#45;sw&#45;01&#45;Eth2/1</title>
<polygon fill="none" stroke="#000000" points="86.8186,-143 42.8186,-143 42.8186,-99 86.8186,-99 86.8186,-143"/>
<text text-anchor="middle" x="64.8186" y="-117.3" font-family="Times,serif" font-size="14.00" fill="#000000">Eth2/1</text>
</g>
<!-- lab&#45;core&#45;sw&#45;01&#45;Eth2/2 -->
<g id="node2" class="node">
<title>lab&#45;core&#45;sw&#45;01&#45;Eth2/2</title>
<polygon fill="none" stroke="#000000" points="86.8186,-205 42.8186,-205 42.8186,-161 86.8186,-161 86.8186,-205"/>
<text text-anchor="middle" x="64.8186" y="-179.3" font-family="Times,serif" font-size="14.00" fill="#000000">Eth2/2</text>
</g>
<!-- lab&#45;core&#45;sw&#45;01&#45;Eth2/1&#45;&#45;lab&#45;core&#45;sw&#45;01&#45;Eth2/2 -->
<!-- lab&#45;core&#45;sw&#45;02&#45;Eth2/1 -->
<g id="node4" class="node">
<title>lab&#45;core&#45;sw&#45;02&#45;Eth2/1</title>
<polygon fill="none" stroke="#000000" points="186.8186,-143 142.8186,-143 142.8186,-99 186.8186,-99 186.8186,-143"/>
<text text-anchor="middle" x="164.8186" y="-117.3" font-family="Times,serif" font-size="14.00" fill="#000000">Eth2/1</text>
</g>
<!-- lab&#45;core&#45;sw&#45;01&#45;Eth2/1&#45;&#45;lab&#45;core&#45;sw&#45;02&#45;Eth2/1 -->
<g id="edge3" class="edge">
<title>lab&#45;core&#45;sw&#45;01&#45;Eth2/1&#45;&#45;lab&#45;core&#45;sw&#45;02&#45;Eth2/1</title>
<path fill="none" stroke="#000000" d="M87.0118,-121C103.5835,-121 126.1306,-121 142.6874,-121"/>
</g>
<!-- lab&#45;core&#45;sw&#45;01&#45;Eth2/3 -->
<g id="node3" class="node">
<title>lab&#45;core&#45;sw&#45;01&#45;Eth2/3</title>
<polygon fill="none" stroke="#000000" points="86.8186,-81 42.8186,-81 42.8186,-37 86.8186,-37 86.8186,-81"/>
<text text-anchor="middle" x="64.8186" y="-55.3" font-family="Times,serif" font-size="14.00" fill="#000000">Eth2/3</text>
</g>
<!-- lab&#45;core&#45;sw&#45;01&#45;Eth2/2&#45;&#45;lab&#45;core&#45;sw&#45;01&#45;Eth2/3 -->
<!-- lab&#45;core&#45;sw&#45;02&#45;Eth2/2 -->
<g id="node5" class="node">
<title>lab&#45;core&#45;sw&#45;02&#45;Eth2/2</title>
<polygon fill="none" stroke="#000000" points="186.8186,-205 142.8186,-205 142.8186,-161 186.8186,-161 186.8186,-205"/>
<text text-anchor="middle" x="164.8186" y="-179.3" font-family="Times,serif" font-size="14.00" fill="#000000">Eth2/2</text>
</g>
<!-- lab&#45;core&#45;sw&#45;01&#45;Eth2/2&#45;&#45;lab&#45;core&#45;sw&#45;02&#45;Eth2/2 -->
<g id="edge4" class="edge">
<title>lab&#45;core&#45;sw&#45;01&#45;Eth2/2&#45;&#45;lab&#45;core&#45;sw&#45;02&#45;Eth2/2</title>
<path fill="none" stroke="#000000" d="M87.0118,-183C103.5835,-183 126.1306,-183 142.6874,-183"/>
</g>
<!-- lab&#45;acc&#45;sw&#45;01&#45;Gi2 -->
<g id="node6" class="node">
<title>lab&#45;acc&#45;sw&#45;01&#45;Gi2</title>
<polygon fill="none" stroke="#000000" points="182.8186,-52 146.8186,-52 146.8186,-16 182.8186,-16 182.8186,-52"/>
<text text-anchor="middle" x="164.8186" y="-30.3" font-family="Times,serif" font-size="14.00" fill="#000000">Gi2</text>
</g>
<!-- lab&#45;core&#45;sw&#45;01&#45;Eth2/3&#45;&#45;lab&#45;acc&#45;sw&#45;01&#45;Gi2 -->
<g id="edge5" class="edge">
<title>lab&#45;core&#45;sw&#45;01&#45;Eth2/3&#45;&#45;lab&#45;acc&#45;sw&#45;01&#45;Gi2</title>
<path fill="none" stroke="#000000" d="M87.0118,-53.4517C104.9645,-48.9635 129.9299,-42.7222 146.6948,-38.5309"/>
</g>
</g>
</svg>
