<?xml version="1.0" encoding="UTF-8" standalone="no"?>
<!DOCTYPE svg PUBLIC "-//W3C//DTD SVG 1.1//EN"
 "http://www.w3.org/Graphics/SVG/1.1/DTD/svg11.dtd">
<!-- Generated by graphviz version 2.40.1 (20161225.0304)
 -->
<!-- Title: G Pages: 1 -->
<svg width="184pt" height="198pt"
 viewBox="0.00 0.00 184.00 198.00" xmlns="http://www.w3.org/2000/svg" xmlns:xlink="http://www.w3.org/1999/xlink">
<g id="graph0" class="graph" transform="scale(1 1) rotate(0) translate(4 194)">
<title>G</title>
<polygon fill="#ffffff" stroke="transparent" points="-4,4 -4,-194 180,-194 180,4 -4,4"/>
<g id="clust1" class="cluster">
<title>clusterlab&#45;acc&#45;sw&#45;01</title>
<polygon fill="none" stroke="#000000" points="0,-30 0,-159 76,-159 76,-30 0,-30"/>
<text text-anchor="middle" x="38" y="-143.8" font-family="Times,serif" font-size="14.00" fill="#000000">lab&#45;acc&#45;sw&#45;01</text>
</g>
<g id="clust3" class="cluster">
<title>clusterlab&#45;core&#45;sw&#45;02</title>
<polygon fill="none" stroke="#000000" points="96,-99 96,-182 176,-182 176,-99 96,-99"/>
<text text-anchor="middle" x="136" y="-166.8" font-family="Times,serif" font-size="14.00" fill="#000000">lab&#45;core&#45;sw&#45;02</text>
</g>
<g id="clust4" class="cluster">
<title>clusterlab&#45;core&#45;sw&#45;01</title>
<polygon fill="none" stroke="#000000" points="96,-8 96,-91 176,-91 176,-8 96,-8"/>
<text text-anchor="middle" x="136" y="-75.8" font-family="Times,serif" font-size="14.00" fill="#000000">lab&#45;core&#45;sw&#45;01</text>
</g>
<!-- lab&#45;acc&#45;sw&#45;01&#45;Gi3 -->
<g id="node1" class="node">
<title>lab&#45;acc&#45;sw&#45;01&#45;Gi3</title>
<polygon fill="none" stroke="#000000" points="56,-128 20,-128 20,-92 56,-92 56,-128"/>
<text text-anchor="middle" x="38" y="-106.3" font-family="Times,serif" font-size="14.00" fill="#000000">Gi3</text>
</g>
<!-- lab&#45;acc&#45;sw&#45;01&#45;Gi2 -->
<g id="node2" class="node">
<title>lab&#45;acc&#45;sw&#45;01&#45;Gi2</title>
<polygon fill="none" stroke="#000000" points="56,-74 20,-74 20,-38 56,-38 56,-74"/>
<text text-anchor="middle" x="38" y="-52.3" font-family="Times,serif" font-size="14.00" fill="#000000">Gi2</text>
</g>
<!-- lab&#45;acc&#45;sw&#45;01&#45;Gi3&#45;&#45;lab&#45;acc&#45;sw&#45;01&#45;Gi2 -->
<!-- lab&#45;core&#45;sw&#45;02&#45;Eth2/3 -->
<g id="node3" class="node">
<title>lab&#45;core&#45;sw&#45;02&#45;Eth2/3</title>
<polygon fill="none" stroke="#000000" points="158,-151 114,-151 114,-107 158,-107 158,-151"/>
<text text-anchor="middle" x="136" y="-125.3" font-family="Times,serif" font-size="14.00" fill="#000000">Eth2/3</text>
</g>
<!-- lab&#45;acc&#45;sw&#45;01&#45;Gi3&#45;&#45;lab&#45;core&#45;sw&#45;02&#45;Eth2/3 -->
<g id="edge2" class="edge">
<title>lab&#45;acc&#45;sw&#45;01&#45;Gi3&#45;&#45;lab&#45;core&#45;sw&#45;02&#45;Eth2/3</title>
<path fill="none" stroke="#000000" d="M56.4331,-113.5738C72.7341,-116.7342 96.5498,-121.3515 113.8751,-124.7105"/>
</g>
<!-- lab&#45;core&#45;sw&#45;01&#45;Eth2/3 -->
<g id="node4" class="node">
<title>lab&#45;core&#45;sw&#45;01&#45;Eth2/3</title>
<polygon fill="none" stroke="#000000" points="158,-60 114,-60 114,-16 158,-16 158,-60"/>
<text text-anchor="middle" x="136" y="-34.3" font-family="Times,serif" font-size="14.00" fill="#000000">Eth2/3</text>
</g>
<!-- lab&#45;acc&#45;sw&#45;01&#45;Gi2&#45;&#45;lab&#45;core&#45;sw&#45;01&#45;Eth2/3 -->
<g id="edge3" class="edge">
<title>lab&#45;acc&#45;sw&#45;01&#45;Gi2&#45;&#45;lab&#45;core&#45;sw&#45;01&#45;Eth2/3</title>
<path fill="none" stroke="#000000" d="M56.4331,-52.6143C72.7341,-49.6203 96.5498,-45.246 113.8751,-42.0638"/>
</g>
</g>
</svg>
