<?xml version="1.0" encoding="UTF-8" standalone="no"?>
<!DOCTYPE svg PUBLIC "-//W3C//DTD SVG 1.1//EN"
 "http://www.w3.org/Graphics/SVG/1.1/DTD/svg11.dtd">
<!-- Generated by graphviz version 2.40.1 (20161225.0304)
 -->
<!-- Title: G Pages: 1 -->
<svg width="332pt" height="144pt"
 viewBox="0.00 0.00 332.00 143.50" xmlns="http://www.w3.org/2000/svg" xmlns:xlink="http://www.w3.org/1999/xlink">
<g id="graph0" class="graph" transform="scale(1 1) rotate(0) translate(4 139.5)">
<title>G</title>
<polygon fill="#ffffff" stroke="transparent" points="-4,4 -4,-139.5 328,-139.5 328,4 -4,4"/>
<!-- lab&#45;core&#45;sw&#45;01 -->
<g id="node1" class="node">
<title>lab&#45;core&#45;sw&#45;01</title>
<polygon fill="none" stroke="#000000" points="0,-42.5 0,-134.5 144,-134.5 144,-42.5 0,-42.5"/>
<text text-anchor="middle" x="72" y="-119.3" font-family="Times,serif" font-size="14.00" fill="#000000">lab&#45;core&#45;sw&#45;01</text>
<polyline fill="none" stroke="#000000" points="0,-111.5 144,-111.5 "/>
<text text-anchor="middle" x="72" y="-96.3" font-family="Times,serif" font-size="14.00" fill="#000000">Eth2/1</text>
<polyline fill="none" stroke="#000000" points="0,-88.5 144,-88.5 "/>
<text text-anchor="middle" x="72" y="-73.3" font-family="Times,serif" font-size="14.00" fill="#000000">Eth2/2</text>
<polyline fill="none" stroke="#000000" points="0,-65.5 144,-65.5 "/>
<text text-anchor="middle" x="72" y="-50.3" font-family="Times,serif" font-size="14.00" fill="#000000">Eth2/3</text>
</g>
<!-- lab&#45;core&#45;sw&#45;02 -->
<g id="node2" class="node">
<title>lab&#45;core&#45;sw&#45;02</title>
<polygon fill="none" stroke="#000000" points="180,-66 180,-135 324,-135 324,-66 180,-66"/>
<text text-anchor="middle" x="252" y="-119.8" font-family="Times,serif" font-size="14.00" fill="#000000">lab&#45;core&#45;sw&#45;02</text>
<polyline fill="none" stroke="#000000" points="180,-112 324,-112 "/>
<text text-anchor="middle" x="252" y="-96.8" font-family="Times,serif" font-size="14.00" fill="#000000">Eth2/1</text>
<polyline fill="none" stroke="#000000" points="180,-89 324,-89 "/>
<text text-anchor="middle" x="252" y="-73.8" font-family="Times,serif" font-size="14.00" fill="#000000">Eth2/2</text>
</g>
<!-- lab&#45;core&#45;sw&#45;01&#45;&gt;lab&#45;core&#45;sw&#45;02 -->
<g id="edge1" class="edge">
<title>lab&#45;core&#45;sw&#45;01:Eth2/1&#45;&gt;lab&#45;core&#45;sw&#45;02:Eth2/1</title>
<path fill="none" stroke="#000000" d="M144,-100.5C156,-100.5 161.25,-100.5 169.875,-100.5"/>
<polygon fill="#000000" stroke="#000000" points="170,-104.0001 180,-100.5 170,-97.0001 170,-104.0001"/>
</g>
<!-- lab&#45;core&#45;sw&#45;01&#45;&gt;lab&#45;core&#45;sw&#45;02 -->
<g id="edge2" class="edge">
<title>lab&#45;core&#45;sw&#45;01:Eth2/2&#45;&gt;lab&#45;core&#45;sw&#45;02:Eth2/2</title>
<path fill="none" stroke="#000000" d="M144,-76.5C156.0046,-76.5 161.2488,-77.0625 169.8733,-77.3438"/>
<polygon fill="#000000" stroke="#000000" points="169.9472,-80.8452 180,-77.5 170.0552,-73.846 169.9472,-80.8452"/>
</g>
<!-- lab&#45;acc&#45;sw&#45;01 -->
<g id="node3" class="node">
<title>lab&#45;acc&#45;sw&#45;01</title>
<polygon fill="none" stroke="#000000" points="180,-.5 180,-46.5 324,-46.5 324,-.5 180,-.5"/>
<text text-anchor="middle" x="252" y="-31.3" font-family="Times,serif" font-size="14.00" fill="#000000">lab&#45;acc&#45;sw&#45;01</text>
<polyline fill="none" stroke="#000000" points="180,-23.5 324,-23.5 "/>
<text text-anchor="middle" x="252" y="-8.3" font-family="Times,serif" font-size="14.00" fill="#000000">Gi2</text>
</g>
<!-- lab&#45;core&#45;sw&#45;01&#45;&gt;lab&#45;acc&#45;sw&#45;01 -->
<g id="edge3" class="edge">
<title>lab&#45;core&#45;sw&#45;01:Eth2/3&#45;&gt;lab&#45;acc&#45;sw&#45;01:Gi2</title>
<path fill="none" stroke="#000000" d="M144,-53.5C164.3598,-53.5 158.8267,-24.6968 170.2858,-14.7957"/>
<polygon fill="#000000" stroke="#000000" points="171.6546,-18.0273 180,-11.5 169.4056,-11.3984 171.6546,-18.0273"/>
</g>
</g>
</svg>
