<?xml version="1.0" encoding="UTF-8" standalone="no"?>
<!DOCTYPE svg PUBLIC "-//W3C//DTD SVG 1.1//EN"
 "http://www.w3.org/Graphics/SVG/1.1/DTD/svg11.dtd">
<!-- Generated by graphviz version 2.40.1 (20161225.0304)
 -->
<!-- Title: G Pages: 1 -->
<svg width="332pt" height="120pt"
 viewBox="0.00 0.00 332.00 120.00" xmlns="http://www.w3.org/2000/svg" xmlns:xlink="http://www.w3.org/1999/xlink">
<g id="graph0" class="graph" transform="scale(1 1) rotate(0) translate(4 116)">
<title>G</title>
<polygon fill="#ffffff" stroke="transparent" points="-4,4 -4,-116 328,-116 328,4 -4,4"/>
<!-- lab&#45;acc&#45;sw&#45;01 -->
<g id="node1" class="node">
<title>lab&#45;acc&#45;sw&#45;01</title>
<polygon fill="none" stroke="#000000" points="0,-21 0,-90 144,-90 144,-21 0,-21"/>
<text text-anchor="middle" x="72" y="-74.8" font-family="Times,serif" font-size="14.00" fill="#000000">lab&#45;acc&#45;sw&#45;01</text>
<polyline fill="none" stroke="#000000" points="0,-67 144,-67 "/>
<text text-anchor="middle" x="72" y="-51.8" font-family="Times,serif" font-size="14.00" fill="#000000">Gi3</text>
<polyline fill="none" stroke="#000000" points="0,-44 144,-44 "/>
<text text-anchor="middle" x="72" y="-28.8" font-family="Times,serif" font-size="14.00" fill="#000000">Gi2</text>
</g>
<!-- lab&#45;core&#45;sw&#45;02 -->
<g id="node2" class="node">
<title>lab&#45;core&#45;sw&#45;02</title>
<polygon fill="none" stroke="#000000" points="180,-65.5 180,-111.5 324,-111.5 324,-65.5 180,-65.5"/>
<text text-anchor="middle" x="252" y="-96.3" font-family="Times,serif" font-size="14.00" fill="#000000">lab&#45;core&#45;sw&#45;02</text>
<polyline fill="none" stroke="#000000" points="180,-88.5 324,-88.5 "/>
<text text-anchor="middle" x="252" y="-73.3" font-family="Times,serif" font-size="14.00" fill="#000000">Eth2/3</text>
</g>
<!-- lab&#45;acc&#45;sw&#45;01&#45;&gt;lab&#45;core&#45;sw&#45;02 -->
<g id="edge1" class="edge">
<title>lab&#45;acc&#45;sw&#45;01:Gi3&#45;&gt;lab&#45;core&#45;sw&#45;02:Eth2/3</title>
<path fill="none" stroke="#000000" d="M144,-55.5C158.4713,-55.5 160.9981,-68.3174 170.2438,-73.925"/>
<polygon fill="#000000" stroke="#000000" points="169.4379,-77.3321 180,-76.5 171.2243,-70.5639 169.4379,-77.3321"/>
</g>
<!-- lab&#45;core&#45;sw&#45;01 -->
<g id="node3" class="node">
<title>lab&#45;core&#45;sw&#45;01</title>
<polygon fill="none" stroke="#000000" points="180,-.5 180,-46.5 324,-46.5 324,-.5 180,-.5"/>
<text text-anchor="middle" x="252" y="-31.3" font-family="Times,serif" font-size="14.00" fill="#000000">lab&#45;core&#45;sw&#45;01</text>
<polyline fill="none" stroke="#000000" points="180,-23.5 324,-23.5 "/>
<text text-anchor="middle" x="252" y="-8.3" font-family="Times,serif" font-size="14.00" fill="#000000">Eth2/3</text>
</g>
<!-- lab&#45;acc&#45;sw&#45;01&#45;&gt;lab&#45;core&#45;sw&#45;01 -->
<g id="edge2" class="edge">
<title>lab&#45;acc&#45;sw&#45;01:Gi2&#45;&gt;lab&#45;core&#45;sw&#45;01:Eth2/3</title>
<path fill="none" stroke="#000000" d="M144,-32.5C158.4713,-32.5 160.9981,-19.6826 170.2438,-14.075"/>
<polygon fill="#000000" stroke="#000000" points="171.2243,-17.4361 180,-11.5 169.4379,-10.6679 171.2243,-17.4361"/>
</g>
</g>
</svg>
